# xmcd
#
# Track frame offsets:
#	150
#	19838
#	42144
#	60970
#	82189
#	100310
#	122922
#	139392
#	153442
#	176061
#	191882
#	213361
#
# Disc length: 3100 seconds
#
# Revision: 0
# Processed by: cddbd v1.5.1PL0 Copyright (c) Steve Scherf et al.
# Submitted via: dBpowerAMP V4.0
#
DISCID=ab0c1a0c
DTITLE=natalie imbruglia - white lilies island
DYEAR=1900
DGENRE=
TTITLE0=Beauty on the Fire
TTITLE1=Butterflies
TTITLE2=Come September
TTITLE3=Do You love?
TTITLE4=Everything Goes
TTITLE5=Goodbye
TTITLE6=Hurricane
TTITLE7=Satellite
TTITLE8=Sunlight
TTITLE9=Talk in Tongues
TTITLE10=That Day
TTITLE11=Wrong Impression
EXTD=white lilies island
EXTT0=
EXTT1=
EXTT2=
EXTT3=
EXTT4=
EXTT5=
EXTT6=
EXTT7=
EXTT8=
EXTT9=
EXTT10=
EXTT11=
PLAYORDER=
